<svg width="65" height="65" viewBox="0 0 65 65" fill="none" xmlns="http://www.w3.org/2000/svg">
<path d="M49.1667 41.1667C49.1667 42.0507 48.8155 42.8986 48.1904 43.5237C47.5653 44.1488 46.7174 44.5 45.8334 44.5H19.1667C18.2827 44.5 17.4348 44.1488 16.8097 43.5237C16.1846 42.8986 15.8334 42.0507 15.8334 41.1667V17.8333C15.8334 16.9493 16.1846 16.1014 16.8097 15.4763C17.4348 14.8512 18.2827 14.5 19.1667 14.5H27.5L30.8334 19.5H45.8334C46.7174 19.5 47.5653 19.8512 48.1904 20.4763C48.8155 21.1014 49.1667 21.9493 49.1667 22.8333V41.1667Z" stroke="#736CBB" stroke-width="3" stroke-linecap="round" stroke-linejoin="round"/>
<path d="M40.9649 27.0997C40.4907 26.5917 39.9171 26.1865 39.2797 25.9096C38.6423 25.6326 37.9548 25.4896 37.2598 25.4896C36.5648 25.4896 35.8773 25.6326 35.2399 25.9096C34.6025 26.1865 34.0289 26.5917 33.5547 27.0997C33.1124 27.5647 32.7554 28.104 32.5 28.6927C32.2445 28.1045 31.8875 27.5658 31.4454 27.1013C30.9712 26.5932 30.3976 26.1881 29.7602 25.9111C29.1228 25.6341 28.4352 25.4912 27.7403 25.4912C27.0453 25.4912 26.3578 25.6341 25.7204 25.9111C25.083 26.1881 24.5094 26.5932 24.0352 27.1013C23.9833 27.1562 23.9454 27.2228 23.9248 27.2955C23.9042 27.3681 23.9014 27.4447 23.9168 27.5187C23.9321 27.5926 23.9651 27.6618 24.0129 27.7202C24.0607 27.7787 24.122 27.8247 24.1914 27.8544L29.0219 29.956C28.8774 29.9826 28.7329 30.0138 28.5891 30.0521C27.8959 30.2336 27.2456 30.5507 26.6757 30.9851C26.1058 31.4194 25.6276 31.9623 25.2688 32.5826C24.9075 33.1989 24.6731 33.8813 24.5792 34.5895C24.4853 35.2977 24.5338 36.0176 24.7219 36.7068C24.7419 36.7811 24.7799 36.8493 24.8325 36.9054C24.8851 36.9615 24.9507 37.0039 25.0235 37.0287C25.0721 37.045 25.123 37.0535 25.1743 37.0537C25.277 37.0537 25.3769 37.0199 25.4586 36.9576L32.0313 31.9458V40.3333C32.0313 40.4577 32.0807 40.5769 32.1686 40.6648C32.2565 40.7527 32.3757 40.8021 32.5 40.8021C32.6244 40.8021 32.7436 40.7527 32.8315 40.6648C32.9194 40.5769 32.9688 40.4577 32.9688 40.3333V31.9458L39.5446 36.956C39.6263 37.0183 39.7262 37.0521 39.8289 37.0521C39.8802 37.0519 39.9311 37.0435 39.9797 37.0271C40.0525 37.0023 40.1181 36.96 40.1707 36.9038C40.2233 36.8477 40.2613 36.7795 40.2813 36.7052C40.4694 36.016 40.518 35.2961 40.424 34.5879C40.3301 33.8797 40.0957 33.1974 39.7344 32.581C39.3756 31.9608 38.8974 31.4178 38.3275 30.9835C37.7576 30.5492 37.1073 30.2321 36.4141 30.0505C36.2704 30.0122 36.1258 29.981 35.9813 29.9544L40.8118 27.8529C40.8812 27.8232 40.9425 27.7771 40.9903 27.7187C41.0381 27.6602 41.0711 27.591 41.0864 27.5171C41.1018 27.4431 41.099 27.3666 41.0784 27.2939C41.0578 27.2212 41.0199 27.1546 40.968 27.0997H40.9649ZM27.7407 26.4271C28.3084 26.4284 28.8698 26.5461 29.3902 26.773C29.9106 26.9998 30.379 27.3309 30.7664 27.7458C31.4127 28.4271 31.8345 29.2901 31.975 30.2185L25.2289 27.2865C25.948 26.73 26.8314 26.4277 27.7407 26.4271ZM25.4914 35.7497C25.3943 34.8113 25.5991 33.8663 26.0758 33.0521C26.3738 32.5388 26.7704 32.0895 27.2428 31.7302C27.7151 31.3708 28.254 31.1085 28.8282 30.9583C29.2135 30.8552 29.6106 30.8027 30.0094 30.8021C30.5547 30.8018 31.0955 30.9006 31.6055 31.0935L25.4914 35.7497ZM38.9243 33.0521C39.401 33.8663 39.6057 34.8113 39.5086 35.7497L33.3961 31.0927C34.4007 30.7149 35.5064 30.7043 36.518 31.0628C37.5296 31.4214 38.3819 32.126 38.9243 33.0521ZM33.025 30.2185C33.1656 29.2901 33.5874 28.4271 34.2336 27.7458C34.6211 27.3309 35.0895 26.9998 35.6099 26.773C36.1303 26.5461 36.6917 26.4284 37.2594 26.4271C38.1687 26.4277 39.0521 26.73 39.7711 27.2865L33.025 30.2185Z" fill="#736CBB"/>
<circle cx="32.5" cy="57.5" r="3" fill="#736CBB"/>
</svg>
