<svg width="65" height="65" viewBox="0 0 65 65" fill="none" xmlns="http://www.w3.org/2000/svg">
<path d="M43.3333 39.6666V37C43.3333 35.5855 42.7714 34.2289 41.7712 33.2287C40.771 32.2285 39.4145 31.6666 38 31.6666H27.3333C25.9188 31.6666 24.5623 32.2285 23.5621 33.2287C22.5619 34.2289 22 35.5855 22 37V39.6666" stroke="#736CBB" stroke-width="3" stroke-linecap="round" stroke-linejoin="round"/>
<path d="M32.6666 26.3333C35.6121 26.3333 37.9999 23.9455 37.9999 21C37.9999 18.0544 35.6121 15.6666 32.6666 15.6666C29.7211 15.6666 27.3333 18.0544 27.3333 21C27.3333 23.9455 29.7211 26.3333 32.6666 26.3333Z" stroke="#736CBB" stroke-width="3" stroke-linecap="round" stroke-linejoin="round"/>
<path d="M43.585 10.5C43.807 9.86885 44.2453 9.3366 44.8221 8.99756C45.399 8.65853 46.0773 8.5346 46.7367 8.64772C47.3962 8.76084 47.9944 9.10371 48.4253 9.6156C48.8562 10.1275 49.0921 10.7754 49.0911 11.4445C49.0911 13.3334 46.2577 14.2778 46.2577 14.2778" stroke="#736CBB" stroke-width="3" stroke-linecap="round" stroke-linejoin="round"/>
<path d="M46.3334 18.0555H46.3434" stroke="#736CBB" stroke-width="3" stroke-linecap="round" stroke-linejoin="round"/>
<circle cx="32.5" cy="57.5" r="3" fill="#736CBB"/>
</svg>
