<svg width="48" height="48" viewBox="0 0 48 48" fill="none" xmlns="http://www.w3.org/2000/svg">
<rect width="48" height="48" rx="24" fill="#989592"/>
<path d="M24 22.8179C22.4096 22.8179 21.0474 22.2532 19.9134 21.1239C18.7794 19.9946 18.213 18.6386 18.2143 17.056C18.2143 15.4708 18.7806 14.1136 19.9134 12.9843C21.0461 11.8575 22.4083 11.2941 24 11.2941C25.5917 11.2941 26.9539 11.8575 28.0866 12.9843C29.2194 14.1136 29.7857 15.4708 29.7857 17.056C29.7857 18.6399 29.2194 19.9958 28.0866 21.1239C26.9539 22.2519 25.5917 22.8166 24 22.8179ZM10.5 36.704V33.5445C10.5 32.752 10.7314 32.0106 11.1943 31.3205C11.6584 30.629 12.282 30.0925 13.065 29.711C14.8856 28.8416 16.7068 28.1899 18.5286 27.7558C20.3518 27.3204 22.1756 27.1028 24 27.1028C25.8257 27.1028 27.6495 27.3204 29.4714 27.7558C31.2932 28.1911 33.1138 28.8429 34.9331 29.711C35.7174 30.0925 36.3409 30.629 36.8038 31.3205C37.2679 32.0106 37.5 32.752 37.5 33.5445V36.7059L10.5 36.704Z" fill="black"/>
</svg>
